<mxfile host="65bd71144e">
    <diagram id="NwwMibQ1yu2yw5W7UFah" name="Page-1">
        <mxGraphModel dx="229" dy="677" grid="1" gridSize="10" guides="1" tooltips="1" connect="1" arrows="1" fold="1" page="1" pageScale="1" pageWidth="850" pageHeight="1100" math="0" shadow="0">
            <root>
                <mxCell id="0"/>
                <mxCell id="1" parent="0"/>
                <mxCell id="11" value="Transacciones aprobadas" style="whiteSpace=wrap;html=1;verticalAlign=middle;labelBackgroundColor=default;fillColor=none;strokeColor=#3399FF;fontColor=#3399FF;fontFamily=Tahoma;" parent="1" vertex="1">
                    <mxGeometry x="280" y="230" width="120" height="60" as="geometry"/>
                </mxCell>
                <mxCell id="13" value="Transacciones rechazadas" style="whiteSpace=wrap;html=1;verticalAlign=middle;labelBackgroundColor=default;fillColor=none;strokeColor=#FF9933;fontColor=#FF9933;fontFamily=Tahoma;" parent="1" vertex="1">
                    <mxGeometry x="280" y="300" width="120" height="60" as="geometry"/>
                </mxCell>
                <mxCell id="15" style="edgeStyle=none;html=1;entryX=0;entryY=0.5;entryDx=0;entryDy=0;" edge="1" parent="1" source="14" target="11">
                    <mxGeometry relative="1" as="geometry"/>
                </mxCell>
                <mxCell id="16" style="edgeStyle=none;html=1;entryX=0;entryY=0.5;entryDx=0;entryDy=0;" edge="1" parent="1" source="14" target="13">
                    <mxGeometry relative="1" as="geometry"/>
                </mxCell>
                <mxCell id="14" value="Transacciones" style="shape=image;verticalLabelPosition=bottom;labelBackgroundColor=default;verticalAlign=top;aspect=fixed;imageAspect=0;image=data:image/png,iVBORw0KGgoAAAANSUhEUgAAATgAAAEkCAYAAAC7ay2KAAAMTmlDQ1BJQ0MgUHJvZmlsZQAASImVVwdYU8kWnltSIQQIREBK6E0QqQGkhNACSC+CqIQkQCgxJgQVO7K4gmsXESwrugqi2FZAFhvqqiuLgr0uFlSUdXFd7MqbEECXfeV7831z57//nPnnnHNn7r0DAL2LL5XmopoA5EnyZbEhAazJySksUg8gAV2gAzyBE18gl3KioyMALMPt38vrawBRtpcdlFr/7P+vRUsokgsAQKIhThfKBXkQ/wgA3iKQyvIBIEohbz4rX6rE6yDWkUEHIa5R4kwVblHidBW+NGgTH8uF+BEAZHU+X5YJgEYf5FkFgkyoQ4fRAieJUCyB2B9i37y8GUKIF0FsA23gnHSlPjv9K53Mv2mmj2jy+ZkjWBXLYCEHiuXSXP6c/zMd/7vk5SqG57CGVT1LFhqrjBnm7VHOjHAlVof4rSQ9MgpibQBQXCwctFdiZpYiNEFlj9oI5FyYM8CEeKI8N443xMcK+YHhEBtCnCHJjYwYsinKEAcrbWD+0ApxPi8eYj2Ia0TyoLghmxOyGbHD817LkHE5Q/xTvmzQB6X+Z0VOAkelj2lniXhD+phjYVZ8EsRUiAMLxImREGtAHCnPiQsfskktzOJGDtvIFLHKWCwglokkIQEqfaw8QxYcO2S/O08+HDt2IkvMixzCnflZ8aGqXGGPBPxB/2EsWJ9IwkkY1hHJJ0cMxyIUBQapYsfJIklCnIrH9aT5AbGqsbidNDd6yB4PEOWGKHkziOPlBXHDYwvy4eJU6eMl0vzoeJWfeGU2Pyxa5Q++H0QALggELKCANR3MANlA3N7b2AvvVD3BgA9kIBOIgMMQMzwiabBHAq9xoBD8DpEIyEfGBQz2ikAB5D+NYpWceIRTXR1AxlCfUiUHPIY4D4SDXHivGFSSjHiQCB5BRvwPj/iwCmAMubAq+/89P8x+YTiQiRhiFMMzsujDlsQgYiAxlBhMtMUNcF/cG4+AV39YnXE27jkcxxd7wmNCB+EB4Sqhi3BzurhINsrLSaAL6gcP5Sf96/zgVlDTDQ/AfaA6VMaZuAFwwF3hPBzcD87sBlnukN/KrLBGaf8tgq+e0JAdxYmCUsZQ/Ck2o0dq2Gm4jagoc/11flS+po/kmzvSM3p+7lfZF8I2fLQl9i12CDuLncTOYy1YI2Bhx7EmrA07qsQjK+7R4Iobni120J8cqDN6zXx5sspMyp3qnHqcPqr68kWz85WbkTtDOkcmzszKZ3HgF0PE4kkEjuNYzk7ObgAovz+q19urmMHvCsJs+8It+Q0An+MDAwM/feHCjgNwwAO+Eo584WzY8NOiBsC5IwKFrEDF4coLAb456HD36QNjYA5sYDzOwB14A38QBMJAFIgHyWAa9D4LrnMZmAXmgcWgBJSBVWA9qARbwXZQA/aCg6ARtICT4GdwAVwCV8FtuHq6wXPQB16DDwiCkBAawkD0ERPEErFHnBE24osEIRFILJKMpCGZiARRIPOQJUgZsgapRLYhtcgB5AhyEjmPdCA3kftID/In8h7FUHVUBzVCrdDxKBvloOFoPDoVzURnooVoMboCrUCr0T1oA3oSvYBeRbvQ52g/BjA1jImZYg4YG+NiUVgKloHJsAVYKVaOVWP1WDN8zpexLqwXe4cTcQbOwh3gCg7FE3ABPhNfgC/HK/EavAE/jV/G7+N9+GcCjWBIsCd4EXiEyYRMwixCCaGcsJNwmHAG7qVuwmsikcgkWhM94F5MJmYT5xKXEzcT9xFPEDuID4n9JBJJn2RP8iFFkfikfFIJaSNpD+k4qZPUTXpLViObkJ3JweQUsoRcRC4n7yYfI3eSn5A/UDQplhQvShRFSJlDWUnZQWmmXKR0Uz5QtajWVB9qPDWbuphaQa2nnqHeob5SU1MzU/NUi1ETqy1Sq1Dbr3ZO7b7aO3VtdTt1rnqqukJ9hfou9RPqN9Vf0Wg0K5o/LYWWT1tBq6Wdot2jvdVgaDhq8DSEGgs1qjQaNDo1XtApdEs6hz6NXkgvpx+iX6T3alI0rTS5mnzNBZpVmkc0r2v2azG0JmhFaeVpLdfarXVe66k2SdtKO0hbqF2svV37lPZDBsYwZ3AZAsYSxg7GGUa3DlHHWoenk61TprNXp12nT1db11U3UXe2bpXuUd0uJsa0YvKYucyVzIPMa8z3Y4zGcMaIxiwbUz+mc8wbvbF6/noivVK9fXpX9d7rs/SD9HP0V+s36t81wA3sDGIMZhlsMThj0DtWZ6z3WMHY0rEHx94yRA3tDGMN5xpuN2wz7DcyNgoxkhptNDpl1GvMNPY3zjZeZ3zMuMeEYeJrIjZZZ3Lc5BlLl8Vh5bIqWKdZfaaGpqGmCtNtpu2mH8yszRLMisz2md01p5qzzTPM15m3mvdZmFhMsphnUWdxy5JiybbMstxgedbyjZW1VZLVUqtGq6fWetY860LrOus7NjQbP5uZNtU2V2yJtmzbHNvNtpfsUDs3uyy7KruL9qi9u73YfrN9xzjCOM9xknHV4647qDtwHAoc6hzuOzIdIxyLHBsdX4y3GJ8yfvX4s+M/O7k55TrtcLo9QXtC2ISiCc0T/nS2cxY4VzlfcaG5BLssdGlyeelq7ypy3eJ6w43hNsltqVur2yd3D3eZe717j4eFR5rHJo/rbB12NHs5+5wnwTPAc6Fni+c7L3evfK+DXn94O3jneO/2fjrReqJo4o6JD33MfPg+23y6fFm+ab7f+3b5mfrx/ar9Hvib+wv9d/o/4dhysjl7OC8CnAJkAYcD3nC9uPO5JwKxwJDA0sD2IO2ghKDKoHvBZsGZwXXBfSFuIXNDToQSQsNDV4de5xnxBLxaXl+YR9j8sNPh6uFx4ZXhDyLsImQRzZPQSWGT1k66E2kZKYlsjAJRvKi1UXejraNnRv8UQ4yJjqmKeRw7IXZe7Nk4Rtz0uN1xr+MD4lfG306wSVAktCbSE1MTaxPfJAUmrUnqmjx+8vzJF5INksXJTSmklMSUnSn9U4KmrJ/SneqWWpJ6bar11NlTz08zmJY77eh0+nT+9ENphLSktN1pH/lR/Gp+fzovfVN6n4Ar2CB4LvQXrhP2iHxEa0RPMnwy1mQ8zfTJXJvZk+WXVZ7VK+aKK8Uvs0Ozt2a/yYnK2ZUzkJuUuy+PnJeWd0SiLcmRnJ5hPGP2jA6pvbRE2jXTa+b6mX2ycNlOOSKfKm/K14E/+m0KG8U3ivsFvgVVBW9nJc46NFtrtmR22xy7OcvmPCkMLvxhLj5XMLd1num8xfPuz+fM37YAWZC+oHWh+cLihd2LQhbVLKYuzln8a5FT0Zqiv5YkLWkuNipeVPzwm5Bv6ko0SmQl15d6L936Lf6t+Nv2ZS7LNi77XCos/aXMqay87ONywfJfvpvwXcV3AysyVrSvdF+5ZRVxlWTVtdV+q2vWaK0pXPNw7aS1DetY60rX/bV++vrz5a7lWzdQNyg2dFVEVDRttNi4auPHyqzKq1UBVfs2GW5atunNZuHmzi3+W+q3Gm0t2/r+e/H3N7aFbGuotqou307cXrD98Y7EHWd/YP9Qu9NgZ9nOT7sku7pqYmtO13rU1u423L2yDq1T1PXsSd1zaW/g3qZ6h/pt+5j7yvaD/Yr9zw6kHbh2MPxg6yH2ofofLX/cdJhxuLQBaZjT0NeY1djVlNzUcSTsSGuzd/Phnxx/2tVi2lJ1VPfoymPUY8XHBo4XHu8/IT3RezLz5MPW6a23T00+deV0zOn2M+Fnzv0c/POps5yzx8/5nGs573X+yC/sXxovuF9oaHNrO/yr26+H293bGy56XGy65HmpuWNix7FOv86TlwMv/3yFd+XC1cirHdcSrt24nnq964bwxtObuTdf3iq49eH2ojuEO6V3Ne+W3zO8V/2b7W/7uty7jt4PvN/2IO7B7YeCh88fyR997C5+THtc/sTkSe1T56ctPcE9l55Nedb9XPr8Q2/J71q/b3ph8+LHP/z/aOub3Nf9UvZy4M/lr/Rf7frL9a/W/uj+e6/zXn94U/pW/23NO/a7s++T3j/5MOsj6WPFJ9tPzZ/DP98ZyBsYkPJl/MFfAQwojzYZAPy5CwBaMgAMeG6kTlGdDwcLojrTDiLwn7DqDDlY3AGoh//0Mb3w7+Y6APt3AGAF9empAETTAIj3BKiLy0gdPssNnjuVhQjPBt+HfErPSwf/pqjOpF/5PboFSlVXMLr9FxIjg0Sf4ZrpAAAAlmVYSWZNTQAqAAAACAAFARIAAwAAAAEAAQAAARoABQAAAAEAAABKARsABQAAAAEAAABSASgAAwAAAAEAAgAAh2kABAAAAAEAAABaAAAAAAAAAJAAAAABAAAAkAAAAAEAA5KGAAcAAAASAAAAhKACAAQAAAABAAABOKADAAQAAAABAAABJAAAAABBU0NJSQAAAFNjcmVlbnNob3Rn/nGTAAAACXBIWXMAABYlAAAWJQFJUiTwAAAC22lUWHRYTUw6Y29tLmFkb2JlLnhtcAAAAAAAPHg6eG1wbWV0YSB4bWxuczp4PSJhZG9iZTpuczptZXRhLyIgeDp4bXB0az0iWE1QIENvcmUgNi4wLjAiPgogICA8cmRmOlJERiB4bWxuczpyZGY9Imh0dHA6Ly93d3cudzMub3JnLzE5OTkvMDIvMjItcmRmLXN5bnRheC1ucyMiPgogICAgICA8cmRmOkRlc2NyaXB0aW9uIHJkZjphYm91dD0iIgogICAgICAgICAgICB4bWxuczpleGlmPSJodHRwOi8vbnMuYWRvYmUuY29tL2V4aWYvMS4wLyIKICAgICAgICAgICAgeG1sbnM6dGlmZj0iaHR0cDovL25zLmFkb2JlLmNvbS90aWZmLzEuMC8iPgogICAgICAgICA8ZXhpZjpVc2VyQ29tbWVudD5TY3JlZW5zaG90PC9leGlmOlVzZXJDb21tZW50PgogICAgICAgICA8ZXhpZjpQaXhlbFhEaW1lbnNpb24+MzEyPC9leGlmOlBpeGVsWERpbWVuc2lvbj4KICAgICAgICAgPGV4aWY6UGl4ZWxZRGltZW5zaW9uPjI5MjwvZXhpZjpQaXhlbFlEaW1lbnNpb24+CiAgICAgICAgIDx0aWZmOlJlc29sdXRpb25Vbml0PjI8L3RpZmY6UmVzb2x1dGlvblVuaXQ+CiAgICAgICAgIDx0aWZmOlhSZXNvbHV0aW9uPjE0NC8xPC90aWZmOlhSZXNvbHV0aW9uPgogICAgICAgICA8dGlmZjpZUmVzb2x1dGlvbj4xNDQvMTwvdGlmZjpZUmVzb2x1dGlvbj4KICAgICAgICAgPHRpZmY6T3JpZW50YXRpb24+MTwvdGlmZjpPcmllbnRhdGlvbj4KICAgICAgPC9yZGY6RGVzY3JpcHRpb24+CiAgIDwvcmRmOlJERj4KPC94OnhtcG1ldGE+Cue3114AAEAASURBVHgB7d0J2G1VWQfwbdpcNplkZVyTIXFCjOgKyBUEARlkUEjGmJEgRCAfFfMRoTKJMpBBRAIZ5DJdZpDhAgKKCAQYKFZXG7CyuWzutH8rFx73Xfuc833fGfbeZ73Pc77znX322Xutd631X/93WGs/q1dKkSVrIGsga6CDGviODtYpVylrIGsgayBoIANc7ghZA1kDndVABrjONm2uWNZA1kAGuNwHsgayBjqrgQxwnW3aXLGsgayBDHC5D2QNZA10VgMZ4DrbtLliWQNZAxngch/IGsga6KwGMsB1tmlzxbIGsgYywOU+kDWQNdBZDWSA62zT5oplDWQNZIDLfSBrIGugsxrIANfZps0VyxrIGsgAl/tA1kDWQGc1kAGus02bK5Y1kDWQAS73gayBrIHOaiADXGebNlcsayBrIANc7gNZA1kDndVABrjONm2uWNZA1kAGuNwHsgayBjqrgQxwnW3aXLGsgayBDHC5D2QNZA10VgMZ4DrbtLliWQNZAxngch/IGsga6KwGMsB1tmlzxbIGsgYywOU+kDWQNdBZDWSA62zT5oplDWQNZIDLfSBrIGugsxrIANfZps0VyxrIGsgAl/tA1kDWQGc1kAGus02bK5Y1kDWQAS73gayBrIHOaiADXGebNlcsayBr4DlZBYvXwD/8wz8UTzzxRPGZz3ym+MIXvlB89atfLRz7r//6r+K7vuu7ih/90R8t1l133eIVr3hFsXz58mL99dcvfuAHfmDxN8y/zBrIGliQBp7VK2VBv5jzk6nr61//enHPPfcU999/f/FHf/RHxV/+5V8Wf/M3f1P80z/9U/Hv//7vxf/8z/8Uz372s4vv/d7vLX7oh36oeP7zn1/89E//dPGyl72seM1rXhNejj/rWc+ac23m6mcNTFYDGeAWoN9//dd/Lb70pS8Vt956a3H77bcXjzzySAC2US4BzF7wghcUr371q4sVK1YEkNtoo42KH/zBH8xAN4oC8zlZA4vQQAa4EZWGnT366KPFpZdeWlx22WXBFP3f//3fEX/9rdO+4zu+o/iRH/mR4o1vfGOxyy67FK985SsD8H3/93//t07K/2UNZA2MRQMZ4EZQ43/+538W9913X/GRj3ykWLly5Qi/GO2Un/zJnyz23nvvYs899yxe/vKXB5OWaZslayBrYDwayAA3gh752s4777zikksuCT62EX4y0inYHD/dBhtsENjcIYccEthcBrmR1JdPyhoYqoEcRR2ioq997WvFqlWriptuumms4Oa2TFx+vSeffLL4u7/7uxCN3W233Yodd9yxwO4y0A1pnPx11sAQDWSAG6AgEVPAtnr16gLQ1clznvOc4FcTNABM3/M93xPA8Omnnw7pI3//939f/Pd//3fdz4t/+7d/Cykmf/VXfxUitI899lix9dZbF5tttlnxUz/1U7W/y19kDWQNDNZABrga/Uj1+MpXvlLccMMNgWHVZdP82I/9WMhz+8Vf/MUQMJAOwuwEWn/xF39R/OEf/mHx4IMPFkDrr//6r0MKSeqWri/F5POf/3zx1FNPhWjtl7/85RBtlUcnf45JmyVrIGtgdA1kH1xCV8DmX/7lX4Lf7Ywzzij+5E/+JHFWUfzwD/9wseWWWxYHH3xwsdNOOwUA6s9tcx1m6J133llcccUVIVDxZ3/2ZyECm7xg5aD8uS222KLYd999QxBCmsn3fd/35bSSip7yx6yBOg1kgEtoxkoEoMYf9sd//MeFKGpVsCmpHkceeWSxww47VL9e6/M///M/h9y5Cy64IOTRuSbwq2OG8QIAE6jts88+xYEHHhiShX3O/rmoofyeNVCvgWe/r5T6r+fzGyxL1PSOO+4IpmZKC5Zg7b///sWuu+4almWlzuk/9p3f+Z1h2ZYlW3Lf+pd19Z+X+p//ToLx3XffHXx0z3ve84p11lknM7mUsvKxrIE+DWSA61OGfzEta0tPO+20ACZ1ybwHHHBA8aY3vSksweo3SyuXe+ajc4CclQsvfOELi0033TSkhLjfsCCEi2B8//iP/xiYpeVhgh78fZnNPaPi/E/WwFoayEGGikqkbFx//fUhwJAyH5mG1pRus802xc/+7M8umEUBuR//8R8vsDA+tvXWW6+46667invvvTcs3E/dMxYRyGF+f/u3f1usWbMmsLoV31z2JXormpslayBr4FsayAzuW7oIwHHjjTcWF198cTIQgIVZUiUhd9tttw0A1ffzBf3rWiKwG264YfGiF73omTWp3/jGN4r/+I//CP65ugvyEVrcby2s1BK/IdhcXvJVp7V8fB41kAHum63OFLUcS7STiZoS6R8/93M/V7znPe8pli1bNhZHP9b1Ez/xE8XGG28cfHPASrqIF9/bIEanzFJZPve5z4UdTWzRZJcSeXiY5iimc6qe+VjWQFc0kAHumy0JWM4555zimmuuCeCSamCBhWOPPTbkpgG7cQpwYmZaxcBsta+cPDpsbpgwXQUhbOHk3dIvC/qZwxnkhmkvf99lDWSA+2brXnnllcXVV18dnPgp1iTnTU7aCSecUDz3uc+dGHAAJIxOtPWlL31pAFspK6kyVTsmoBMBtvrCHnU23OTry765qqby53nRwNwDnBULVhicfvrpxQMPPPCMP6vaAezjxve2ySabTHxFATYHRC3TYhJ72a5JFBWI1QkQ9D329+d//udhmRgfnVUQOa2kTmv5eJc1MPdhN4vdMTdLpABDSgDN5ptvHhjctEw+PjRRVqYmk/VnfuZnQh6caCszlI+uTgAdJge4RV0t+Xrta18bXtghAM2SNTAPGphrBgckrPv8zd/8zdoVC4DGwve3vOUtIQgw7U7h/nLnmKuirdE85pvD6gYJdira+sUvfjGAougr4T8UiMhrWwdpL3/XBQ3MLcBhOfxUggp26LU4PiUYj6TenXfeeabMB3PE6JjIwM5nyb4ircOirYDNudbEMl2BG6D87u/+7pnWKaXvfCxrYJwamNu1qEDBcxUOP/zwYM7VrVg44ogjikMPPTQAyzgVv5RrAWdRX6bnb/3Wb4V6MEdHEayNT06CsHpZR4slZska6KIG5pbB2cbok5/8ZLG63OuNKVcVg35ZmesmLeTnf/7nG8V0sDcpICK79oyzsgLo2X9ukG9OHZ2H0WGvtnF6+OGHAzN0reybq/aC/LntGpjLIIP1n7Yhv+WWW8JgTzUiP9V+++33zO4dqXNmeQzIMTWBMEYmCGFPOnWyKH+Q2Yqt8t/xzfHRWfbFz/iGN7whmL+umyVroAsamEuAe+ihhwJzq9vnzXInD4GxmJ7fC5g0WeS6ibYCO+tjLf+yKsNWT8C8TjA5aSRefHNM3q222iqwQsnCOQhRp7l8vC0amDsT1c4df/AHf1DcfPPNybQQgxobEljAaKzvbIMot8ABYGJSCyAQ0VYBlJQZ3l8vC/jtUgLknM9cdQ2v7KPr11T+v00amCuA438SSfR0LFuIpwR7Y+pZbxpTMlLnNfUYoJNWwjeHhQIqZijQwtjooE6AIDbHN/fZz342+PjogLluNUTTmWxdvfLx+dXA3ACcgS3L/6STTgqDt84Zb8UC9gbk2m6i2a3kF37hF8LaWeD0xBNPDAU5QwHQff3rXy8+9alPhedRAH17z2Xf3PwCRVtrPjcAx6l+1VVXhQc3YykpJgMQ5LsJLnDct10AtGgr/5zcOWtp1Zs56pkTg8R5AhXST0RagaNr8fO5bmZzg7SXv2uKBuYC4DA3AYVTTjklRA7rduiwx5sVC55i1ZUBrB4xpQQLsxrCjsL8aoCujsnGDkpXntkqCEGHXhidbZminy+em9+zBpqmgbkAODlf1113XXHhhRfWDmiD39Ortttuu06wt2pHA3T8ccANyNmaia8OUwNgg4IQzrFm17rW+JBqn13PNQBolqyBJmqg8wDHuc5hfuaZZ4YBarBWhcnl4TF77LFHiEJWv+/aZ6C0/vrrh7W1zFcsjjmKrQlE1In8OaatJGnR1ghymByTviust67++Xj7NNB5gJMLtmrVquLyyy9Ptg5Tzb5poqYeBIOVzIMAIxFST/h6/etfH8CJyWpLJkCWmgj69SIyaydhOYWuhRWKtNJnBrp+TeX/Z6mBTgMcs8tWSOeff34ww1KKNsg9uNkzTj0MZt4Gp/rK9RM9FnGlD9ugA7phAgiBIqATcfVb+851IUAzrO75+3ZooNMA59kK8RkLKR+TtAdZ/+9973vDM0vn1ZcE5DBX5qrNNe1Ywoy1pxyzdRCbA3JMXH68Rx99NARxHAN0497WvR1DKpeySRro7FItviKrFYBcXdTURpZvfvObw4aSS4kIGtB8fVIqDHbACSxEGtvECDG5ZWUaiKVfghAW8d92220h8ddC/joBgOofAxAYoNQSj1aUcEwfbdJDXT3z8fZpoJMAB3AEFiw6F/lLCfB51ateVey2226LHoDATIT2C1/4Qlj3ac+1CHAYjHWhG220UVj6tRQATZV/UscAEfZmuRc2Zzdh20pZ2yoXbpjpCuQlCVvIbzNRaSV8m4DTdbNkDUxTA50zUZmiknp/53d+J+wYktr11iC2jAl7s950MewCYzHgbZh59tlnh/Wtn/70pwOw2lYcuHpuqagkBgPgmIFtWddJJ8os2iovEGCrMzYMxFMmf+y4GJ1F/hgdBk0H6h53Em6LDmJ98nuLNVB2xk5JCWi90jTtlfle8kGSr3Kg9cp93nrlioZF1b1kiL3SBOvtv//+vRK8kvfov3cJEL0Pf/jDvTKi2ysBouf3bRNlLhlq76yzzuqVkddeGUjolUA1tO5RDy95yUt673vf+3rl8yRaq4O2tVkub6/XKQZXNmixptzb7J3vfGfI06rL6ZIWgb1JkVjoelP38HCaD3zgA8X1118/cDuiOO/ZwQSTkT/m98w+AY3FMMd4zWm/KysGxmy14oOJL1Vk1J2Embbqj91igHSAIS5U/9Oud75fuzXQKYDzoOQbb7yxuPjii8OW3sCkKtabHnTQQcX222+/KJ8Q0PzEJz4RTFNRRv6+YcKcs8U4QGC2MV2ZbJz5bXLAAyOgZPdf/kXrW9XB2t6UK6BfL/QE2PjnPBXMU8y0jxzE7Jvr11T+f5wa6AzAWW8qsHDuueeGAZQCN4qzieWee+4ZfEsLZVD8Txjihz70obB3mgG7EPF7A/xP//RPQwqGoAR/lPwxQNcWUWZRYlHoZWXwwDI3EVipInQyCPRNEHLn6NH6VjowAbheTitpSw9oTzk7A3Cidddee23Ie7PsqCqy7D0h67jjjgsRwsVsZImBrVy5MtxjWDSxev/4GfACASssMBmgAJyZrMw+4LFQ4I3XnvY7Nif4gMn1b6ckGIGxDhJ1lk5iyReQA3zqjs3lvecGaS5/txANdALgMCP+MA+RGZQWYr3pW9/61gB0C1GScw1aPqSTTz45mGQplsLsxGoMUiBb5wOM9xZptPHm448/HtZ4MtdcA3AY7G0QYKzMmNxrXvOasBoEeDFZvQ+KtqqffEUpJQ888EDBV8n8VX/XBHRZsgaWooFOABwWcNFFF4UHrqSUASzWXXfdooxkBqaxmIEjpwt7wxJT4GagW49pVYTNMrESr1EEi+OTkphscNsyHUi2zQEPlOT92XcO4DHFBSHq3AX9urFwn2/ypptuCpODRGP+PXr1ypI1sBgNtB7ggI2dQm644Yba9aaAB3PbaaedAoAsdMBgb9Zauk+daQpEf+3Xfi08Z1Ri6/LlywNQxWccDGMyQIBZZwUAXyJ5wQte0Mp1nfyJdO5JXYDOKgiMLuU6qHZabNyzITA6/kqmL1aXJWtgMRpoNcABDY//s8+b1QSpAcTXtvnmmxdHH310ME0XCm6UCnCwN6keKfZmA0iZ/0cddVTx4he/OIASc9PgdlwQgfkFHAexGdfGZPj6+BQBK6Dgm2uTYJ5Ajg4wZ4nCotfMUaA1SAe+U2+BCH7KaL7znwpCtI3VtqnduljW1gIcMMAKmJ1WEACQlBhcoqY2slyMX4v5aKslpqlBVxUDjt8NgALSuJMGMxjzAHi+x8YMegBWxwLjtfmumHbuzWS104f7LAac4zVn8a7MwBnIYWJAymSg3ehhEND1R1ul48RoK/16tU0Xs9B/vmdRtBbgOOiZMQDOetAUszK4dtlll2KvvfYKzu/FNPhdd90Vghf2PUuJ9AbAdvzxx4fB3M8wDEKfgRvflN10AZayYjMGcd0gd1xCMTDgvAeWiwHoVJmnfUy5RVslCQN8vjrCJAfmqbaLZaQj+Y0CPNif800eQI4us2QNDNJAKwGOacqEO/3004PPit+mKsDF/mbADQAtdMYHMEDUPYAcxlEVA9dqCPvJ8bv1g1v1XIMxmqwGucEqXcSATZnWfu+4cjDvrJ1tU65ctf4+0wEmt+WWWwbTG8jTq/ar00G8Dj1JqzHRmNBMLEAOWGqHhbZvvG5+77gGygHUOinBoVc+vLlXzuS9smMn10P67nd/93d7pam3qPqVfqBe+RSuXrllUO09Sh9T75hjjuk5dyFSAnSvHNihDuVg75UDP1mHsuv1SubWK7dSX/S62YWUa5rn0kHJTnuXXXZZr9zwYOR1rdq7nEh65eakvcMPP7xXptn0yolimkXP92qRBlrJ4GzdI6LJCZ0STIpp6glZ2NIgZpX6vWPYxamnnho2ceT0TonlXh4xaMeNhTAI5zKz+KZEW/no+Ny8qoKd8FtZO9ulJU10ILmZ2S4QI1lY/fk5MfRBUo6vwPqweOwaG8bo5nFH5kF6yt8VResyKXXqe+65J+SNpRoQIOjse++9d3iADCBZqDCXOPjlZfGBpUR087WvfW3YU24h4Bav5TfKCbwkug4q52KuH+/T5HcTD98i/yRwMhmtXr065MLJO6ybWNQJCAJD7SNoI4q+YsWKsMZYHuFiJrUm6yqXbXEaWPjoX9x9xvIrDme7UdhllgM+JQILnq9gJ1kAshhxH6xAZLbON4R12DBTKsRSBGsB2nU75vIx8VsB7q6KOmKxoqwmDkCHmXnWgzzCYUEIYEh/3p2/1VZbBZ+oROFBE0dX9Znr9S0NtArgAMEdd9wRmNW3qvCt/zix7XLB6Y8RLHYWN6A4vplCdWLgAEELxg3MxQwk4CmP78477wzLv1L3YpYKlqhb1wWIe0aGNtx4443DzjASrOOa3UGmK5eCAIQkYe+777570BuwNAl1lQV3vU8stX6t8cFhVWVgIXR6UbSUYAE77rhjccghhzyTipA6b9gxwCaCeskll9QuGjeQLEUycKRAACAgt5CBJLfrvPPOC0u01K8qfFQGvBQU9+gyi+uvu3pqSywZ0DFBMXaRVCA3aOIxaawpdyrBAG3jxAWAydGl6y6kffrLlP9vqQbKztJ4KQd/2Am29HmFyGmp6rWijiVb65VLsXqlL2bJ9SkZXIhalqkZAyOc5YAJUc4yDaV36aWX9kqTdkG79Yryukc56NaqjzqW7KN30kkn9cpBveQ6tfEC2qEErBBxLvf56+28885B36n2rx6j0xLUeqV539t333175WqUXgmQbVRDLvMSNNAKBsf8+OAHPxhWLNStAogrFuzWuxhzsRwgz4hZnplqyRSfTl2godR7YBWc3RbLe2wef5K8tUHbMWFrzG3PjfCbFHtznde97nXF2972tsDenincHP2jHbgZsK/nP//5weS0EzB92TVGGw0S30smthKC79ZvsDl+WtfM0n0NNB7ggIsVC2eccUZI8Ez5YYCJjSwl9Vo1MA4xsAwGpihTknmUEiBnwAE5prPUFe9+z6xMDSQg/ZGPfCQES0RrU8I0K/PfwoL1pQJ26vptOybJWXswXfnoREpNfEzXukCQOgI50VjBHP5S/jy/0WdMRNopS3c10GiA0zkxHbv0Wm8q8z8l/SsWxuWnch2BCmUASACs7v6xTNiCTRy9gKIByDcnUBCBjm+PE/y0006rBWznc5J7jQuwYxnb/I7R2bgAuG2wwQYB8PjYtAvdDwI6ExFgw8gBnYlFIImugV0Gujb3jPqyNxrgdEKP3yt9VcnF2bHDCypYTG9GHqfo9EwiA8BgwASGLRJ3f4CIKdj6yO+AG6DzzgEuWCIaXMcKOdf32WefsAZVHbN8uwZMPvLnpOkAOroFbnQN6IBZnZiwTD7y5uQfamPuADuVaJ8MdHWaa+fxxgKcjsg0tRUSxpPqtEw3+W6HHnpoyISfRBPo/LLsN9lkkzDbY5SjRPMi87PFknwuAwdQ8rnxJ6aSWIGZwfr2t789PBWeryjLYA3wzdmMQBvpI/xswI7+U30mXk0bWsTvodbcCgBTOgn9A9A8sURNtfy97ASNFM8sLbcH75UmSDLCWKo9PJvziiuu6JXm48TrUA6aXsnMeqVPrveOd7yjVy6zqo1+Klv/qwTiXmkK9UrfUa9M+6j9XTm4eiUT7ZUBixA9nHilOnSDErDCuuMyPaRXLtHrWSfc3waD/i8nsV4JlL1yU9SeaK1rZemGBhrJ4ErVhv3X7MNWt97UbCvnzVrQpST1lh1/JImmDFZl2x9BAIyMb64uyhovjE1gDPxvzk35ilxfnX791389mF6unWV0DWBdzEyBCKar5V8CUtonxZb7r+w85wgOYdhPPPFEcHdweeQAT7+m2vd/IwEOqHm26epyXWKqc/KVxARYHZlZMQ1hthhIloCJ5lksbxmV+1sqJJoKnOsE0KWiwM43mMpdNYoDDzwwR/fqFDjkuPbhUjDhaZ9l5Y7KVploE343+q8T5/DfSQ1i5uqDVqqYaPqDRHW/z8ebqYHGARwA8HSs6667rlhTOuRTAlR22GGHAAZm7Vn4S4CacthJxGASzVMOkVPO7oVI9PPZFZgvCYBnWZoGtEdc1wrw9BMTkPZJMeh4N/0PyxaA0P+sR/Y77Y295yBE1FQ73hsFcDqe2dODle3gqmNVRUfz1CaBBesMZwFu/WUyw8vLsrOImR64SVtgkqbK3/9b/yu/LYOY29bQArtZ16laxrZ+pkfBg5e85CUhGMXc7G+fOjYd64vBiYRjc9oyPqBbG2Wgi1pq9ntjAI6JIL1Cztutt9468AlZu+22W0jqbQoQKIdOb3dfu9Wa6ZlE/D+DonkGiV1pyyVIRblxZsjWb0qdmt1tF1Y6bgXgZGdnOy9Hk5VPdJDZ6i6+55vz4CFRfWxd5FbicQa5hbXDLM5uDMBhPZy75drLWn+JwW+fNzliOlkTBaPjF5S6IElXPhw/YmogefZnuSttcdBBBwVT10DMMlkNYHTyDL2A1JNPPhlMVqA3SFgXGJ20EsDIPcH0zRPSIK3N/rvGbJck+1/OG+ZTZ9qZfZmCfCtNlcgWgJyoqFUWZn7gbXcLZpHjgiS+86wFQJf9btNpUXqmf33JUjrujnJr+pBQLsBQJwCQeWvJl+i+/z1r10O+M8jVaW32xxsBcFYsWKxe5iAls/t1ILOtbcjNvBzGCxUMSpTMczaZjpzQoqDLykjbJDqo8ro+/5pABDPHUiHlYJYCNd/NKkiyUP116XztzV/KN2fZF6bNvWBfPr7fuvXBUQcW719//fWhD4moSxvK0kwNNALgmHF26RW1SolZF7DZXUOHXKgwL8y8N998c9hVAksEMuUDZYJfBovSUced82QgYXQYZ5NZ50L12ZXz+dAAnX4F7LBqG2xaecJ0FSiqM1311Ztuuim4SkxUXBOTmCi7outZ1WPmPjhUH3O76KKLkgmzOqEcsXL1QDAHOIsXKkL9NkA87rjjwtPpAaq1iFijdIAYHcO6gGnuqAvVcPvPN+FxK2ByJjv+NhMjkKuLtjqHf9Xky9zNQYfm9YOZA5y1nXLeOG9TYobVgd71rneFLPXFgA8wsz2RkH+/sx+48v2tWrUqrEvkNGau5FSNVEt0/5i+FRfx235LX2GOmiBTTM4xIAgAV5QPvMl+1Ob1kZlvhsUnVrcci7r4sY499thgSiwG3FxDcicgqxMdmYlskfsJJ5wQ2F4/ENb9Lh8frwYAhmi6INMs9Y+JYXFHHXVU2NaK77fOfSEwYXLm1wV2WZqlgZn74DzXwK4OKcGosDeRqqXMjpKDRc4GidA/oJXF7p3Dec899wzbJS0mqDHoXvm7/3/sn73ZsGsuA0wJSDAJTWR0bl0p/xbfmPWl+gN2PWlxf75T9xdltUUWU/SWW25Z69bAmH/3wQcfDCwOA8zSHA3MHOCkTtRFrSRVvvrVrw6z6VJUxuzkSLZ1EYZQxw7MwNaUKo/Bx5HsEXRy2qxWmMbgWko9m/5bphwQs6DdiyOfiwK4YUIml+jvomu+UfmOMRJtW3r9wR5wfGbTEIAleVu/kOwrEt4vkXUCOJNxBrh+7cz+/5kDnE5thkyJGdRyrKWKBdeelcoc5oezo6uUkTrhmwNuXo899lgAOz4WTmigu1hTue5+83AcsJk05ATa7PO+++4LE0mdWYfJceJ72TZedFM6hgln6623DvvzLStTfKbh2DdB2j0GsIqwVv1xWBywTm0MMQ9t2+Q6zjzIcPXVVwcQSSX3Ct1jXvxwSxHmLfOGuaFzMkeB6ii+HiklZmdmFD8M0HU9/09jcC2l3k34LX0DKTszf/SjHw1L8bA3+q9j0qlyuw6WZ4KSq+ZzzCPUFpOcdFybHxfTTG2+qh8IhllP3NQVNimdzsOxmQcZgEXdEiWz+CCmtZAGMgjMxO985zuLM888s/jlX/7lkZ9Wxaz1gOb3vOc9xf777x+CEJhnlsEaAELYsAi2KPiVV14ZJpfBvxr8LRNWao8NGSxzw8rdY9LCJwi8UkCqngA7mteTLku+/ugamDmD8zAZ7CgFGGZF7M225OMQndNsazE8f46lUnLf4m4ROuogwfiwkVhmwQv5T96zfLsGDHarN9797ncXWHrcSvzbz1r8J6Yt5z42yO/FdaAtJyXanXltoqv2ExM0N4hNIPSHLM3RwMwBzhpNAMcUrAoGJ0OcmQpEUrNn9TejfMYaObB1Sj4+e7ARDuQ6f6DvdWwgJy+K01m5+fM4xKNvblxldL+2CtOTv+2cc84JrA3QactxiraIfjptoQ345CYV8eaPla+pv1YBzr1Fevl5uUKyNEcDMwc4EcunnnoqmB1VtejAAEWKh6db6UjjAhDXAZpATuf0LveJYJPDzB4+GeCm4wNnoAeMrXEFoPMscg6t1Tz//PODjgaZbtqU7q0gkA5kEbylc5g7XWoHLoI60T/o3+TkfBMW/Y+rn7iv+1v18olPfCIZ8QeqtmIyEcc+VFfefHy6Gpg5wPGNMRE5b6sDwUwpMsW8wZCYrMyQOp/dYlQXgQ6ACmqYgSNTA2KDHOG+M7D4hDi/mU2up4w6/TjLuZi6zeI3GLCk6QsuuCAEj6psJ5aJboCYp5Vts802xa677hoe3u3xj8CCC0EQQZvTqevSb+p6jks3YkZaq+x3rj8ukNM/b7jhhgDaqftLWSkfdBPqMq30lajH/D5EA2WDzVRKUOuVM32vBBgOsOSrBMHwNKoPf/jDvTIxtFdGQXt+Nwlx3RJQe7//+7/fKwdfr1wH2ysZQbJcqfKWeVq98rGAz5SzBMFJFLOx1yyBvnfggQfW6qsEnV7JnMMTxt773vf2Sh9ar2RhtfUpJ5Detdde29t222175eTT0xdSenesBMNemULSK83IXsm6aq+5kC9KBtk777zzeiWrTN639On2SlDtlb65XgnCC7l0PncKGpg5gzPLmm2xJYmUKcGUmICry4fQyDdiWkq89T5uUR6sgckk7I9h8vHI4xpFOL45ouVLKR9WOE42MUoZZnVO2V+DWSqogNmmBLOVT3jWWWcFxmbjSDquk9jWWJ70HqkaqYCU3zNXsTg+P8zQJg1LFUGMyy67LOTuqV9VMDZ95Vd+5VeCiTwu1li9T/68OA3MHOAUG6Do5BI65TqlOpJjOrDv5UE98sgjAUDsq8aPM07RSZVH55VcqgOL1PH11A2ueP9YTr5Fg+Pee+8NJqvBxkfXZeGP9DQ0eYNVd4N6q//y5cuLU045JSy90u7Af5DECZB/ja8U4FnaVzfhMFd979r6xrAleoPurb/J3eNPrFttw7VxyCGHhBUWg4B60H3yd5PTQCMAjlMYmHgBLn63Ot8Xp7POxsHPN8I/x+cVtzwap6oMPteVP2c/Nw5sg5S/RzlSQBzvL0CCdSqn5UhYhRQVQDcJ5hnvO8t3KxRsfZXa2ABQCSAAA342gEUfo4pzTTICEiY0a5g9w6Mq2kT/waQlZWOI+tVCxXUkJ19yySUh1y4F2AIKlnHJx1O2zN4WquXJn98IgFNNwCGQYAbGlJgjqU7lXJ1PAjBwk46A1fkMKHW0cc+kAEl+k515DZjYmTm+ByUiKycgNOCxG/ViiisfZmHQdmlQXHrppcHNANirInhjVw6J0lF/1XOGfaYrepNwawLE+E0k9FwVpirdm1BMTvrGqOLa+l/p8w05jylzW1lsAOAZIUBuIWA9ajnyeUvXQGMATgcxqzMHgYAO5l0nrRMd23my2eWkOR+bA0jjjmLq0K4dE48NNPeXQuDFnBkkTFvRVmtbYzkNOmUdNyAPKsckv2PO2R0ktSYTGHh6mFSQpYh2wJyWlTlvJg7MmP5T4jsTJoCLeYqp86rH9CnJ3GeccUZg4CkABZz2jPNcBuZwlmZqoDEARz1ADpMzCJiGTFGmBiaX6mT9KjVjSzWxiBtwMCsBkmuOc3Y1wICS5GArLDA7zAxrMfMPKqfvsAEpJcw55TRQog/StdsslsAxx1PMW45YGQkNKRxLraP2pDO7d9ghRh9JTTAxfYTOPazIpDdMx8rOKjjxxBPDe+q6yu96e+yxRwhmDLvmUuubf794DTQK4GI1MBo7NwAQJiFfG3/LIPDwWwCjM4tiArqYRAosJyEYpyCE3S0AqsFt9k8N8P77KyfzVtQYKDOzMMM2MwFtExlPf13j/6KgTDmAPg4BcpbcMVf1D9HVlLAATD4YtInT5DRIuD2uueaaECzRLinRPzFSO4y4P+DM0kwNNBLgzIjYDWCSDmI/NgPDTA1AAESd+E6njlFMaSVmYUCJ0Y1TquU0gJhPQLYuyhfvDxAMIOdZ/iO44rNEVcDcRlZw9tlnBzYb69j/vqLcbsraX/63cQj9ADm+vcjUMOmq0DOTWaqPc5mqJqaU6Dui3qeffnptPfzONVkMJii7+XI76JeCGeN2jaTKmY+NroFGAlwsvpkSyOmUBj5fis7JhwVEBglQAx78MGtKBz9/jagooBw3gLgu9qWcsuiV1WfMQccfJMrpPNFWZRQdNHjVu24gDrrerL5T5o9//OMBGABAVaSHyE1bStpG9Zo+AxRtyg9Hd6k0HoxanwGA+hC3QmqyY5pKCfEaxsIxcNF0zFH/MpFi495jqpM21DfaOFmldN3GY40GuKhQnYQpwByU2wQ8zN46M7aWGlDxt6KcwEPHM+vGaCtf3zBzJV5j1HflNHikk0STUzmBHHY2qJzqIX9LZBAwK2cEznGXc9T6LPS8lStXhgkl5bfyiEYvpvy4BWjGiU8gJ3V/gEW/Jk19SLqJ/6PQv8dKXnHFFQGw4vFh79ijydbkJO/R/QEt4Iv5eq4dA0oZ7IZpdLzftwLgYpV1EsAh0momBgI6sw6ko9UBiOPOBR5MQbMv0DD7T8KkwA6wOHlf3plIsZx1fh11VE5MBBiLRgI6QOx6ygksmzxA7LproNN1VQC/CYpvddxCJyZAQGfjBsCScmPQLz8pU1L/kScX9Ym9SVL23IVh7G1Q+U1mAC7uXAzwTKz6gH4a219f1p5ZJquBVgFcVIXBjiXZnsZMzPTgcwMidSAXf4v1WUZldwgD0XUmBR5MYZnub3jDG4L/Rxn5ggy+YeUUVLFiw/NclZMvEtg12eQRHQYwTO6qqC9dCxxFUKmes5TP9ALg6BvQ0lkK5AAMRq9t+AS9A7SPfexjYUE9s3Ncoj+6l6AXs3d1udQQ+AI2vlplJvQxCZ2Mqx5tvk4rAS52Ch3ETGyffkEEA0sHGkUAHZPCzhfYH9+ZmX0SHc1sDaD4oSQL8wsKmAwDOd8bqPL8DFoMgKPcQJ5EOUfR26Bz1Akop9oAs8Hi+OHGFWioloWeXZuOOP7r/LR0qv3p0ENsnCtAgt2nQDEy52HtVS1P/2fXVR5WxK233lpcddVVoV2VhXkN8JrYpv11aOP/rQU4ytYhzMDSBZiCfDzeMTpO5UGmhg7HHMSqJAkDO7M78OAcHqf0l5OJLcUAIHNGKyeArZNYTuDNjGJiGXBMvaYNCGZ/3O24Wh/10FbAR3rFJCTqmW6BCbacAjllAbh0yky1zxuWlVr6pZxcDQcccEB4jCSQ1q8AUzQ3R62L+/oNF4l789Nhvffcc08waZmydIipA+ssS9dAqwEuVt+AB0qcxxjdsjLLXSACeHjpWHUCXPi6dDYv4Mi04NPR2cYJIhinchmAgNgLa+Sf0eEHMQSDChhjf87DBJWxSWJgYkHy0gBAVUwoQG5FmTLifZy6jffSF+jYRGUCYSKmygJoABq2CdyAS2pCdB0rFjzDQ2IxE9hEakcU7cg/qv3UbSGiTwI6rFfunYnLK67KYSo7R/+gqyyL00AnAC5W3awnZcCOsDqfzqHDM+0A3SBxTlzbCkR89tvYwcY5GAGdcsZBEstpIHoNAjrfK4v6YYJNEvo3YGMUsVq2CAJWgXAJ9Ecxq+cu9TPfLD0DLoGPFEtWnjVligdzNQVuyiA5+c1vfnNwL2gnete/bMiJRauHyLDJhqmp7YBn3fVS9YpgB4xZEkAO2EVXBhaq/ICOjsfZF1Pl6dKxTgFcbBjAJCeNExmb09l0Eh1PRxkEIGZVpiBTixmj0wpCxM4V7zGOdwMwApWtgDAB9weuylxXTmyVT89yoSj9585yABiAJgq+uBRzVi8MWdmxn0mV1XWBj77ABQF4U9Kvt+r3/Hl2CrH7CXDrF32CxWCSsUpD8ESfw2IBNz24t/qm9NB/rer/JjE6FAyzpE8iOLbZfy3X13+yDNFA2cCdlxLceqVjt1euh+yV4NArO39yd9ZSVWsdLztx7/jjj+/ZqbbsYL2ys05MXyXA9cpcrN7222/fKwdXbTlL9tArN4x8phzKVYJirxwY4X3S5Xzmxol/3Lt82EyvBO61dEm/dF/6sXplGkUob+ISYz1Umnq9c889t1cCUq0+U+1eglOvXGvaK0FmQeXRP0rm1SuXe/WOOOKIsHOxe7veQvpdqkzlZNsrn+3bO+2003qlGyDshDzJ/rigijf05E4yuLJzfJtgX8wIM7FUBbMh0wWTGCZYlciXvCb+Ob83S5udxy1mZOXEbjA092a29DMA92Y2HXrooSHyxn8oxeH9739/UXb84vLLLw+/wV74oqY9y2NOWDKfIn9cndAfU5WPa5KCJQpCYeJx3e+w+ykblnzyyScHhuYao4r6Y3f0b4mhZzV44LjPJfgHvYzS71L383t+RRuKSjtheusv6jdJcz9VlrYcmwuA0+mAHJODWcFJzJzggxFpKyef2vYCLoAGkPAtGSQ+86FF31ntjxf4RX85ma4SYzm143H/c3jbg0wdHLdnGVBTruiz4b/hy+F3NFCBiHOnJcCEO0B0MPrd+u9Np5zoXAjqydyalAAr5dHu9OO+2m+QaNu99tor7BYiyrrQycz5AlT6B90DIS4Ia5WBnUkSaEZ3xKD+119O5wFHv9MfmbH8dYBPmQFdlm/XwFwAXH+V+6OYOj3Q42vTaXSUOtGxsBLgIfKGzRnEruc1TgFGrgmEMbllpR9RaoV8v9e//vXBwQ0UzOannnpq8Hfx25DInjjPlZPvCciop4E+DaAzeA3GGLTpZ6DK6Dss2sBXt0lHg7Ebgx8IaD9603Z1IkBx5JFHBoa5EPaWuh59Y3SAUoqQSUqbioKbwETStbV2GxYI678+ndIhFhf7oly6Seuyvwxt+H/uAE6jMNt0drOqSKbZ1qwLCLyqA7K/IYEg4DBzxo5lAOmkQGecAOK6gEk5JchibQYfNmqAAhCbTBqwVTFgMBZLhQwCAB3ZjN8vlJVUrz/oMx3QBb3eeeedIWiSYikmlTjYJ8nilJUuAQz2Jh0Ik0uVybkmApFSUVIugXG1qevQvVxA4CbtRP9jvgImIBwnS+01aMJVTuIc9dEn1ce1XGeS7fv/d27H37kEuNg0Or3OxqdlZtVZpAyIYg6a4f3eOaKtlnzpYDqo2d6gBqDjGhSxrNV3ACYybHH4oBw6gL2mZHPMRYCn8xu0yjlJUMFamGe2H6pjTNglFg3AMZxJi0EPtJQH8NcxJiAoCixCKrF3qSyurl76n3qbuFaUuYHYOZNd20TwVWZtPUz4lLlQiCe50X8GuZLMvK+UoJU5/gOMdCydjOMbs7DgfRCTi+piGkpDsPQGOLoO0Jy0c9/1gdVNN90U2MgwQMYIlNOOGYAFIJvtJzUI6NS1sSHpDkA4JQAYm7ZaYBoCrLQRfdgNOAJJ/721O/AzMegPzMhJT1h0xWeH0e2www7hkZWAj5hAtW+qrP3l5mrhe1U/bLWa2tJ/7rz8nwHumy2tA5tRDXzrEzmE+Tg4c7G1QaLjmWXNoHYSFrjgDzH7T2pgRADRmQEWc3lYOdXBwGayAh0L45VxMY70QfqI3wFh5bNSAHtMgbBJQSBE4uykI6qxXAY+UxBjx9RSok2tHAF2cTJInTfuY7FdsWwTkEisrdGZtMprojAp1In2FfXHirHjSbHPuvs37XgGuL4W0bmYB/xeOpdOZYAamDpWaoD2/fyZaCsAAR5MIT4znXUSjE55sR9+LA57AwDQea8TA5cJBriV02AAkADZoAfy4xKshKmEWXDuK1tVTAzKBOREVdVp0qKO2K8XHah/ygwEFtoQSOgPdD0t0V/cVxn1IffH6IAWgONzSwldmjS0MeaJyU2Kpafu37RjGeASLRIHps7hBTwMfh2er0MnqpM4yxo4TBzObMCINQC6cXc2gBxNEgPBgDAAgEpq0MZyKyeGCniYQAa5gQ/olHNcArBMGADfvVIsU3mVZ/PNNw96GreOUnUBHhHUgTxQSE0MjtOl8014AHuaQn/0oV0BlldsY+2WcqPon4AZI15WRqmnCczT1M0o98oAN0BLcXBy2nJOAykg52WgpgZEvJxzgJsEYe/ABoAYKOMEEPczAAxWZWTqAT0dH7AOK6fzgBtTjd8JSMrTGieTUjYTA8BnqlZFGemLuQxElH8aAqzUFRgAC2CWmryw3ZjWIhhF3+PUz6h1dU+6tKEEXQlysSzorioYnPaPQYxJWBDVezbxcwa4EVpFhxY4kKphlYHOI4IpwADkUoMiXtZ3BjbfnEEEJPl0gJ1ON86B4ppmbUwI0CmbcipvNAVjuarvzpV2IijgKWHjjLCqIwYMSESdUxODwcjsKpepBXOVzictyiVtg64wTPWP+YT99zYJ8MdpRxF35jRdz0oAM5NVn5SuFH2F1fKYuJwrHQUwzqNkgFtAq+vUzK0VZbRV4q2ZE2ilBkX1ss61jZBF/LYjxxx0unECSf89zdwGo3ICWWkRqZm+/zdAkAnEFzZuhz+9YUjR59d/X/+7NzCWAKsMJoJpCJDDqAGG4JCF7akJK5aPmR2fnjbOyWmhddVvMHbWAWBORakBsxerQbBiHiUD3AJbXacGdPwawMPsj4kBL51pkPgem7K+1FbkMS/NtcbNCDAg1wR0klYNSoOUo39QFM7zLnbaaafAuAbVZaHfKU9MUL777ruTP6cfpizGwa84LQBxHwCsfEBWW6aE/oAgwLDKZJa+LWXW75RD9F6ZUxOYlCfltuPJJHzAKT016VgGuEW2hsGAgYlq8YlgHjoYX80gADGIfc98YJLpmHw8Oh/TdZyD2rWU0+DFUERbsSNlMJCr5VQPz49goo4bcKk5Ougtwq8zqzAR5VRe5Z6WYERYKyBmimqfqmB2dIY1MQ+BC9N7lsJcNmmaLDG5qgA35eazkzoyLf9mtRyz+pwBbgmaByCACduQoIktMa34mDjs+ZUGCZBh8oi4GvAGjwGDIYzTKWzQuiZw4yTX2d0HiCkr4HF85513Dg/yWVZG3iYhQMTLgOSLS+nHMQAMbKNDfxJlSV1T24lQAgTPaRD8SJmrWKbvMDi6MonMSvQTban/CBQpV1W0sUgwFudc/WFeJAPcGFpahwF0st5FXM2q2JzBykRIDZJ4W50PW+As5p/SYb2Ajtl23J3RIFZGgBzTSgCJ7PnddtstPJJx3PeMdfWuTtiPjRyxXfWvimAEdqSMBuQ0BcC5NzcC/2qV5cayYN+AWBqRCW6SOov3rHvHdE2o/KzKXRX9kE5t1qDN54nFZYCr9oYlfma2irZaeqQjMUGZCQbyIKADiPxjnp4Vo5mAwDXGbS5insrJfwjYMDc70jKRJz1Q1UWk1oCjG4GHqhiQQF55TBrjNNur96p+Vn+gajWLyLdypnxb2pM/DjPiwFenaZazv9zui0Vib/ybqX7mmMktWhr9v+/y/xngJtC6BolZ1WJtz26N4IWxjCJmYdFWET2DTcR10sAzSrnGdQ6Qw3wEWjCh1IBkBmLFcWvzcd17lOvQNRbOv2pNcooVuQ4g5jNkHmJHzO9ZiX5Cjx6DmbIafGcCLXe1LpaVZvWswHja+skANyGNGyTYF6Aza1pm4zNzVAccJNhBdBzzBVlAzQHuWq7RdjG4sAkDDngIslQF66XDyDSr30/ys/K5NwapLbQZtlYVoKGdsDyAKDCCyc1ClJfOAC53R5V1xrJyT/DFMsXnQTLATbCVDRRsBTjx63CcGwRmegMmRrhSRYgd0uARhBCMAASCBYBulmwhVd6FHIt6AQbMVBn5gKRf1J//y0AV1QXsBvE0ha4FjuQ5chsIClVFufm/MFHRXwEcv5uF6Gt8t3aYAbx02C/KihWL+CvrPEgGuCm1so7HGS05k6NXR9MBsblU5CsWiyPbALLVkUHGHHJ+BDpg0VYB/FhcTJWp1gPAeTHRsY5ZsFdl1FaxDVJtBTikaWgLE5n2BTbTFn44zNjefyZGJnRV9Dd9UG5kmyfJar3qPmeAq9PMBI4bAFiLGdRyKgPHgDHbesfoBgm/FHOVX8i5zCKd1ItTvm0CBLzUiykOzKuinkDdswyYVdNmccqDldG1hFqTTJUZxTIDaufxL2J+05583I9+ME0R+RTjFNRRvnkJNmSAi71ziu86IkYn2mqFAQcxE0eHTA3y/qJhCxJNbdZoppaLJdoKLHXuaQ+q/rIt5n9+LpFI9fFeFSxkTZl4u3z58sCO1HPaYvIAWMtK5/wtt9wSJqRUOzGnlRXTFIWdhamqD+gPt99+e+hTKV3RIaaJxXVdMsDNuIWBmwCEdaPMIYu+mWWpAdRfVEDHoSwtwGyNxem0sxhU/eVa6P8RlNX5s5/9bO3PgZ+0Fmb+LATT5PvkQ5WkXBcRx8ZNVFie1JtpTzjup5yesoZtpgJaWDE98m12XTLAzbiFDXCgJFoo4dZCd5+ZZXWDKBYZyHGAY3QW8PPTGYj8VRE44rlNfTcgme3KjZGqTxXcgQV9MO2ZV/xM0xbl5OMyiWgXPreUCaiswJgpiJ0qr7pNS5QT41Q2wZtUigt3iHpIGWFJdFkywDWkdTEwIGdAmF3lYDF1dNTULNxfbOxHKoMZW/Y9c1fHxQ5n4ZjvL9so/0c/IuAA1ClHvjoCCvoRdDCQpy0mDeDKXKVvIJdqG6YqgBP15uuaRdRbu1vzS59VMTHyK3KR6GddlgxwDWpdg9Zgj9FWsyygwgoMGKaF/1PiuEgfRziHvf/5r2JkbZosIlW+QcciOwIcWBygMwirwiS3uzLQmAWLi+URJcWS4qSiXaoCkE00gEZ6EJCbZiCIfh5++OFn1tRWy6c8Jgq7x3RZMsA1tHU5gnVAJqsBhclhBkDLe50w74AbH4xoq4GGyTF7vbCQJgogBnDM7DWlo14dqsJ8BRiAX6rDLFicMrkvJklETrkIUhOPdpJ0u6wMTvDdibBOq8wmNP5c61OljFSFHvUrjyrssmSAa3DrGgyADmOxR5tZWYJw3YCqVkXHFp300uFlsQOSpoKccmFogg0p35H6MfvUwbZO02REVd3SJ6DVJjYOqJt0mNt8YQCO/qfJpPUTIOf+VTERAty99tqr+lWnPmeAa0FzAjqDGmuRVmJgSZCVPzZMMAsmH3PFQGQCSyPA6pomAE4k2aoNvkTlrgogAWzYh/3NpsWIquXwGQuSmwfkPBoxZVY7DxsVeKBzIDetMmO8AE7Utyr0aPLce++9Q5+YVpmq5Zj05wxwk9bwmK6vA/LHyXuzzEZqCaAyS6cij/23NfAMMj4jJiAAcUyUr2lRNAwHcPAlKmtVADaz2wuLc/6sBidAFgGmR7rFrqWJVIWu+Q/56jj1sblpiIkAwN15551r3Y4eMTibGXANTJNZrlWYCR7IADdB5U7i0jpijLZKB2HS8a1FljDonmZtzA878mLCAofYwWcFFNUyc4ArJ9MqlYrB7AMkGJz6A8RZifYAFEBOebHq1BIp5cVItYHJCTBO2lWA9fMRypVMRaaVgftD+o0+1EXJANfSVmVqMtM8F8K7DoopGEgpFtFfTakNGJIEYfllZnMDFZszKGYt6qJM2Kk0B//3i8+AAqgLwgD8SYNF//2r/2sLQQcgInJq4tAWVREJx/QAopxH9ZxkuTE4ExkT1X2roq1NEFaJALsuSga4lrcqYGKyelDLsjJaZxB5YREcyVVwiNV1HECI8knNMCD5krwM2Fk68JWRL47pbdNJ71UBcExta3pjOk31nGl+BlSe6SoIolwp5qk8dC6Nx16BceeRSTJnYCuaLppaFW2M/e64446d3T4pA1y11Vv6Gftiamy33XYhvYRpwu8DCAYJoMPoRC4/97nPBfYnPWXW+4VFsxPD9KyBlMT8M6bqrJZw9ZcLIzLJAGQP/E6xOJMOfQMd7Js/bpIsTnBjTZl2I5JelViW/fbbb6ZPCKuWa5yfM8CNU5szvhYmYJAZNHaY5dDWwfmz6phcLLLvncskFBE0CJldkzaj4v1T78wmwH3NNdckwcJvOPZFJpl8TQiYiEyKlgI3kes6iZMP98Ikgw4mAe1vj7iqaHMT4O677x58iKyBrkkGuI61KDYAlERbDRysjinEZIr+troqGwxMKL4vZpYt0w1UTv9ZpJUYgHxHF198cS3A8XthexhcEzZxZPbxsdGXXD4AnGJydM181FZMbBHxSYjyaPdPfvKTyUmOjkVSBay66IfLADeJXtWAawK6GG21VMgA0oGxNCkWqUEXi21WByyiggZoBEZm6zRZEgf5zTffHLb+MRDrhM9R/UQnMahZC9AyKQA6jJjOU/p23Mv5chwnATAATvT22muvDe1e1SPWT29YML9n1yQDXNdatFIfAQMpDLYa4lsDfHwvMdWi2uH7fy5QIdqKyTFz/JYJbCAyZybpHOfHuvfee4tzzjmndl+zWNYIEkxqpmoTBNAqD1PUlvNAOKVrLE5dsW1BinGLNgJw3A6YefRbxvv4HoO0f52IatckA1zXWrSmPgBJR47mCIAzuHT4FLvovwyzlVPck74MFiYvJjfJaKuo39VXXx1e/WWp+x/IqeOKFSsmDr51Zeg/DjhMBgIJdMdcTUWDMSzi3O23334ikwZ/qknKK5Wjpy31i2VlgKRrkgGuay06pD5AQEeWXoHVMUENvmEg57Ly66Q4xF1tOcixw3EzOWXhM7rwwgtr0y2q1YzgEfeMwzZnLfQCPLgIbGUFtKssDnN7y1veUrzjHe8IJu0kymwys7WTlJtUjqRjno87yw0MJlFv18wANynNNvi6Br+BJ8pqbas0C6aUQERqhu+vCvDBCCwBEiXEAl0G4g6/AAAbPElEQVSHf25cQIcprly5snjwwQdHAt5YPgOZKYgJYUTjKk+8/mLelYFu+Nnot3/huwdGH3nkkcUv/dIvBR1OCpRjm91www2h7ar14HO1uy+Ao7cuSQa4LrXmAupiMBl0lmnFaCtHfTRd+enqxHdMQoEIPjpgB/T8HnAudqBiN8zhj370o8WnPvWpENyoK0PqOHDG5DjMYxJt6rxpH2PKc+ADO2wZ0L3pTW8qDjzwwLBdEf1HU3USZdMeXpdcckmYAKr30J6bbrppALhZ5z9Wy7bUzxnglqrBlv9exxftE4Aw0AAekGK2ALFBQAdQMDgAFx+agy0IQngtlEH57erVq4uLLroomHOpe4sMG4QAtSrOB9AYid1qI6hUz5vFZytElNuLjg844ICQqwiIF6qnhZZfG3NNXH755YGp03NVsHgTQ9cCDRngqi09p58NAgzspS99aXhhFABMSgnASIFNVJXv+ZiYlHELJyDphb2MMoAFOzDCD33oQ+E6mFxVlEm0z9OgnBv9bv3nGbzKYo1qE5Zw9ZdN6gj9qoPgw7RSWugfO/akLb44bVoV/lTpIk2JQlfLt9jPGeAWq7mO/g4gYRVWQgASLE4e3LDcOeoAiBzplikBGQBjUGMPBlkd0AFPazgNwLPOOusZkKyqGHvbd999iz322CMwEZsFVJ32Piur5F+sVBnq7lu9/qQ/Kwcf1yw2BwD8ntGAbfNTVgXDtH25wFOXJANcl1pzjHXB6CLQMV2Al9UN1Tyq1C2Zt5zpt956a4jSMn0NakCXEgAK3N71rncFZlbHFi0pAm4GoutJI6krjyRhWwEpe1zXmrr3vByjU2tSBYYiy+6vOwDELAWduiQZ4LrUmmOuC5OQmcl8wea8mIUSRpmldYJFAR5mpiRXjI5p5HqWMAluAEx5WTZjtBRLSoiARco/hPlYSnTYYYeFfC1sAxOS4gLIUiaX6ys7n1ITlnDV6Wpax7WJHEY7x9BbVegrPogci++KpKfUrtQu12PJGgAu2BJgkg4iO98GirfddltIYGXC1gmwMpiYn94BnWsIQBhQ/GiOM2cFKeqYGzaJudkSSkBEmeTfHVhGIZldylBlcq5lB43o82Iqz7PQIf+aySElJizMTpss61DCbwa4VGvnY2tpgHnJZLVNuCVF/FsinjZTZI4OYnTAzPbjXsAJk6sC0lo3/OYBLIzze7fddgsszu+J4/LImFQA1FKyqgBNICf40fWnR1XrXv1Mb5i4yQr71SZVAXCY9rIOAVw2UautnD8P1ICBgg2JAkotYG5iUAaMFI06FtZ/0VHOcT7fmZUJRxxxREhExd6iKAdTClgCTvllqesqk3MsRRo1ohvv0aX3qC+Tkr0CUysaTGAmL77Lrsjs17N0RZNzVg8mD2Z13HHHFR/72MeKPffcMzCEcYEIUGIOS4g9+OCDA6imVLztttuG3XHrTFDAZ2WETTNHZY2p+3TlmG2l6nYNweCw3i5JZnBdas0Z1AUQMXuYi7LhJeDyq6Uc/wspni29AZvAAp9dnQBaLyZqaltuv2M+S43YZpttAuOsu9Y8HBcJt4VTCsi0pXWzJo2uSGZwXWnJGdUjmj422GRSirKmzJ+FFI+/7fjjjw+ssI5txOu5v+CDzQP4mFIieojF2ZI9lQOW+k1Xj2Fw2iol1iObnAb5U1O/a/KxDHBNbp2WlI3/zZZAdgDBDvi9liIYoSCGwQjAhonzN9tss2LLLbdMnmrAGriXXXZZeK8mByd/1NGDEp/rJg3tBuQsv+uKjjLAdbQjT6taUkGYh9aPSryV97bUwQEkRWZHZYJAkGPcA3csN0uBosFrd2C+OIxuXgXLBXDM0apoNwEjbdgVyQDXlZacUT2AhSdynXnmmSGHqq4YBhRfmkgdZiYimhpkfi+tQ7Svf2uhuuvG44CNqYrFpVZMiLBKgbBLieVKSwXheN+2vQvGMFHr1sECOCseuqKfDHBt66ENK68UjfPPPz/4tlJpGoorCADQAJDAwYknnhjWutZtzYMVAiKMMLWyoU4FHOQHHXTQwKVZq1atKh566KFO+Znq9JE6jt2aDOp2DQFwVpR0RTLAdaUlZ1AP7I05yYE/aMYXvfy93/u9kE5y7LHHFm9961uLD37wg2Htozy6lIjyYXGpx92lznfMaguLxSUj88ulxLpXy5UEHOZVbNdUF5CxvC4zuHntGbne36YBM73F26mtjZzIDNpll12Ko48+OoBOfLoXE0kQQbS0LqlUYODRRx8Nvj25bKPksGGKBi8Wh6GkfHEYoa27gedSU1m+TRkt+oDB1QFcZHCDJqwWVbXIDK5NrdWwsprpbVmUEikjFrkfeuihYRWBtaMAKIqEYEEB+XNAKSXYFjC64IILwjrJOhO4/7fu65qiqu6ZEoBpXeygBzOnfteVY4NMVKBvMwXpNAtxDzRVN9/qcU0tYS5XYzVgINRF3JiIy5cvL173uteFXWxTlQCA1ojyzaUCDliExd8f//jHw5pSW30PEyDKkb7TTjuFLbj7QTX+Fjt8/PHHi+uvvz6wuK6wlVi/Ye+DTFSghpGbBLqQD5cBblhvyN/XaoAPTs5USrCEFStWDHyICRPSxprM2DqTSY4dpgjksMVRBx3gtP1PXSADMNsRhZk9ivmbqmNbj5l8sNtUtFmd6Fykean5jE3QTwa4JrRCS8vAnEk9G0F1+N/s4Zbyg/VXF9sChPvss0//4W/7n2l63XXXhU0xMYtRRNQWe7R1eUowFXvJMX/rfIip33XhmN1E5MINmlQAXBd8lBngutBjZ1QH5l/KtFQcADLqABF82HXXXQObq4uqMiOtRPBM1lGvyxdnFxHR1ZTYZumqq64KDLELbCVVx7pjJgCbGaQEg7Outws6yQCXauF8bCQN2JOtbgNF0TjLt0YJDAA1W4sfc8wxgfUJQKSEOSk/TlrKKIKlxOTf1PnMXcm/fHGp/eRSv+nKsWEAJ79x1ImkyTrJANfk1ml42QaZOXxzUjGwpFF8XHxlHj5s5966JFSMQvTTA4wFH4YJdmlHXw+CBsRVcxkrdM1rr7127nxxgwAO8Nt1xFK5tgdgMsANGyX5+1oNDHregYin3XQ9c0EwYthAYe4adPvvv39I8agLDvDB3XXXXWFdqSjuMPBURrv+2qAzxQyZ0rY993wIC83nRZjtdSYqnZpA6IO52mbJ+8G1ufVmXHYDwYqD+++/fy0Ai+yIs9rTmji066J2sRoYlhSGeF1glgJGAw8gidQCRcBV5w90TfflWLeCIWV2MaMBYXzMYCxPl9/pix4vvfTSZDXp3b5wAkV161aTP2zYwQxwDWuQNhUHC5AQ6pF/qZ0/sCOmKgBZVu7z74Ezo4j8OOzMMrBUlNZ1JQELOHgmBDPT6givqhnqfvHpWkxbg9rvqwIAPTWML3AexKQgemwXGPpITSQmpg022KB22Vsb9JQBrg2t1NAy8nEZGAaKVQGpQeIYJoZp2YsMCA0Tgy8+66FutYHrYnp8fLZA4u+zvlRwg3kL1GKEF1shysG35JyqMMUEJLxSIFk9v+2f1ZEbweTkPQX6GK1n0Nalk7RBBxng2tBKDS2jQQJIgBcmVbe8xy6/GJdzPURm0Bbkquq6ron5eUDKoAgnYOLjw/g8flDk1vZNjz32WIiQYneWb7k385Q5nUpOdh05cwAOm5sHMTFpN0nPKV8bF4Alb3W+ujboKANcG1qpwWUEHhgTRiV3CjtKMTlMi7kJuJg9/GKDmJLrAkJsTnqIwZhiGVE1vnMOn6AVD9IcsDUvIGkQYyrWtipLVYCp50B4KeM8CLcCH6lNDVIuBkC/YsWKMCm1VR8Z4Nracg0qNzCyK4gNKuWVAZqqAD1PbfICcMweJuQgkLPKAXsAXlia66aYRvVePgNTKxWYr/fee29gdVgewEsFGvxGSoloa90ifed0SehStNSDvFNtJl3EkjdtG838ttU/A1zbWqyB5dX5RdqAEQBZU64d5R+rigHDVHXOFltsEVYYRD9Z9Vyfo6nqXDl3MXXBtTGuUQVAYpbKVQduruWZoADOjsPzIHQY8wBNIFXxnbXCgN8k1kbJANfGVmtomQUQBAewNGZhSiJrcI6BU7dVUv9vASiHt+3IgY9IKFM0ZQr3/26h//MPWqBv6dg8CL0CLpFUE09K6APw120gmvpNk45lgGtSa7S8LNhYNO8AUF1wIOa58a8xVTmzhwmfnbSUZWW6iUCAgecYfxqmMQ6wA3BSI4DpPAiGrA0uv/zyEHhJ+Tg33HDDkDojAt5GeU4bC53L3FwNYHG2KOfQF63kk6uakz777sorrwyghfXJfRsmBqOEXKwPCMlZswxLvpyoqSAHP9tixQBPDfLFXq/pvwNwAglYsaBMyr9pksK22yqZwbW15RpcbsEBPjOROaDD95ZiWAYO3xj/HWY2LH0kVhlTtLaUKekZDMBOxr2BCgDdHxi6r9eoIvix6aabtjpqOGpd43naRf6gAFHqodgiyhKg5cO1UTKDa2OrNbzMfDvrrbdeccQRR4SAgt0/MLoUyFk8z9QEiDa+BHaDIqvVqvMh8eV5MVUxOI8d9OQsu/ZK7gWiooRecvJSAZB43YXcO/6mze/qKzhUtysMfbaZwWWAa3PvbHDZmT7Mzt/4jd8o3va2t4VdQFIRTKAnMRc4GWjy0JisiwEaYIfJee2+++7hmlJFrIYAeFJGgB+/XdVspkrAPCiq22B1L7po9LysZM91ACdyDeCY7m3UTd5NZNFdI/9wmAaYiRz3xx9/fMiIrwMtg8fi+V/91V+tTToddq/U90AWaO64447hWay2PZfXVbdTCSbpNW9CR3WbgvLLYd91Udam6yoDXNNbqMXlA2hAZvPNNy/23Xff8J6qDhbHdLQC4eSTTw5sL5VZn/rtoGPuD2T59qQ5rLPOOgOXYTlXeedJ6OiFL3xhcr88etA2wO3pp59upVrmb7pqZTO1u9D8ax4RyAfGkW1pUFUMJKBmrzeRWCakLceZq+MUjKQuUjqPAEe3Agl0zv+Z2r1F3qFouIBO2yQDXNtarKXl5RdjKgI5Jo88uSrQADnf20KcP83LAnjAMy4BcHVBBuzNPedNmOXyEbHcQQDXRr1kgGtjq7W0zPxxe++9d8iB8wAZzv4qyKkak+iaa64J30n5kEkvAFDnwxtVHQBUoKMudQS4jZsxjlq2WZ8H4DBtUeeqRAZXPd6Gz9kH14ZW6kgZAZTI6rvf/e7wSD/gVScSgVetWlW8//3vr92ksu63dceZvXx9gwDOtkrzKPIHAVxKMsCltJKPZQ0kNICJGUgf+MAHgl9u0FpUpuzqciNL+XR1mfaJWyQPYW/ALcUY4w/mmcEBOH64lFiIb0VDnWmf+k1TjmUG15SWmKNy8PksK3OvjjrqqGKHHXaoZQ7AiBnrwTWnnHJK2Mst5SMaRXUATq5dKv8t/n5e00TUfxCDA2wR5AbpL+qxSe/ZB9ek1pijsgATi+YFFQwagYXUlj1Ajk/upptuCikLEk+lnXi+w0J9ckxTQFcn85joG3VhwwPMWjJvleXSmYnFjsmAsE2SAa5NrdWxsjIJPXmeMB891Nl7iiXwA/HJWTq0ptzXzSaMsu8FBUQ/RVoNTi9ARQCgwell0AJH168T5y8UNOuu1bbjEn0BHJ2mJhp6o3drddu0oiEDXNt6YsfKy6kP5AwsPjfPCIisrlpVg+yOO+4Ij/+T0iD1hA9PsEIyr2sBTWAXwQpYevWbWdXrxs8RDOPneXqnLz44ydApgMPgbB2fmnyarKcMcE1unTkpG2DCDM4999zisMMOC7tbALk6YWpiY/HhMQthXYMGqO+q5lldGbp4HINjggroVAXAYXCD9Ff9TRM+5yBDE1ohlyGwLkuGTjvttLCryCibYEbGZdCN+hqkagxxELAO+m0XvgNw8uFS0lYGlwEu1Zr52NQ1gIUxL217JLoqIXjaW4fz84nazqswUeuCCBKkLdfy3iYWl03Uee3NDa23gEFcnsW3duONN4btjqYxqCzjSm3p1FBVjb1Y0URNXZgP0zpiQR7+UpNRGyQDXBtaac7KGFNImKlMppUrVwYHN5+bBflM00lINHMnce02XNOE4pka9J9K6nXME9E8nyEDXBtaNJexsRpgsi4rk4EPOuigYsWKFcXFF18cdhqxgSWWZbAJCHgBJqAX31UqgmB/AML/8Tfx+34F8DPZ/XdexW4iWJyUEeZ6VQR3PC1NQKhuT73qb2b9OTO4WbdAvv9ADchzs9j+pJNOKk444YTwMGdPY5eywCfEZya9BDBhd1YrGIgxGgrU5G1hJdJH/MYOtan95lyLCTbPEp9cRqfVSSAyuDaZ8Rng5rk3t6TuEncBHbNISoloq0HGZxbBLDK5yOL6ByeQi6+rrroqPCbPk7iqwgRu68aO1bos9jP/mvzCRx55ZK1LZIBbSyX5QNbA+DQApIDcUvw/a8pcLptqpgBObh2GByTjaojxlb4dV4oAR9f9k4TSm0z44NrE4HKaSDv6XS7lmDSAndQ9pV0OHJBr6/MHxqEiAOcZDQCuKliyjUrpKboAquc07XMGuKa1SC7PRDXg2anyvVLrKTE34IblzatEBpeqP/1YxsWH2RYWlwEu1ZL5WGc1gL1Jhah7ihSA84SveRVrevk4UxNA1AkWl3pIdPy+Se8Z4JrUGrksE9cA00seFyaXEpFUT/eaVxFpliriJfKcEtuapxbkp86d9bEMcLNugXz/qWsAQ+FnSgnz67HHHmuNjylVh6Uci4EcW8vXPUJRLmJmcEvRcv5t1sAENQDclpVJxCmRH4ehiBZKQ5lHweJe/OIX10arM4Obx16R69waDTBRAVwq3UR0UBb/fffdl0wGbk0ll1BQzG299dZL6sdlAVxmcEtQcP5p1sAkNWDNJTO1bmsgqyJuu+22ud06CcANYnBWe/DBtSFVJPvgJjmS8rUbqQF+Js902HjjjZPlA3C333772B5XmLxJgw8OM1HpR7TZ2t2mSwa4prdQLt9ENMBMtS1TSjAT0dQHHngg5HylzunysWEMTt0lRAvINF0ywDW9hXL5JqIB5umrXvWqkA9XXZZliZJ1lzfffHPySe8TKVCDLkofzHipIik/paJat5sBrkGNlouSNdCvAYv2Ldvy6MJUOgSQE2h48skn524LJSY8M5UZL/E3JQDOq+mSGVzTWyiXbyIaMIgt2dppp50K+6BVBcDJ2L///vvDHmjV7+fhs0BM3YqPbKLOQw/IdWy1Bizb2m677Qo7B9dl7a9evTo85astay/H2SCDAC6bqOPUdL5W1sAENMC/JB1is802q91hxLZKTFU72c6bDAM4IFfdUqlpOsomatNaJJdnqhrga/IEL4O5Tu6+++7iiiuuSD6noO43XThuvW6diWrFh4Topif8ZoDrQk/MdVi0BuyaIV1ERPV5z3te8jo2wQRycuOazliSFVjkwUEMLm6d9LWvfW2RV5/OzzLATUfP+S4N1UAMNvDFbbTRRslS8r8xVS+55JKQNmJn23kQqSJetotPidUMwL/JkgGuya2TyzY1DWy55ZbF8uXLa1mcqKHlW1dffXXI/8Jgui7SZwRg6p6glQGu6z0g168zGvBE96222iqAXGqzR6Ypp/pv//ZvhxUOBvc8mKvrrLNOSKdJNbQnb0mlabJkBtfk1sllm6oGsLhddtml1rHONDWgTz311OIzn/lMKxabL1WBdj+WL5iSzOBSWsnHsgYaqgEJv8zUgw8+uLaEWNvjjz9enH322WEpV9dN1UEMDsAB/CYz2fSexLXNm7/IGuiuBqzBXFbuE7frrrsGM/Tzn/988Y1vfGOtCjt27733hnWaBvcb3/jGzj5mcBCDE3yxqwigE4xoomQTtYmtkss0Mw1Ye/myl72sOOywwwbuiWa3Ec9XvfDCCwOTM9ibzGQWq9BBAGfXFY8QtAFmUyUzuKa2TC7XzDQgarj77ruHhfYrV64M25fbXaQqMbJqkGN/Fu5b/pUKUlR/25bP6mNXERHV1BbuEn6//OUvh0mhiXXKDK6JrZLLNFMNACv+uGOOOabYdtttQ6qEfLmUiCTecccdxYknnljceeedYZ+0LuXJATYgVxdoAHBNXsaWAS7Va/OxrIFSA3LAgBw2Z3ulOsFsPGrw7W9/e3HeeecVX/nKV+pObeVx/rW67d0jg2tqxZ79vlKaWrhcrqyBWWoAa/Okdzly1qw++uijtetR+d8M9i9+8YuB0TBTLeTHBuvY3yzrtpB7i5QC8Keeemqtn9GLlQ777bffWt814UAGuCa0Qi5DYzVgGyUMhrOduWag88elAgpSRiw+tz5zzZo1xVe/+tWwCuC5z31uclPNxla6UjCR0i996UvFQw89VPnm/z+q99FHH538btYHc5Bh1i2Q7994DYisvuIVrwhMBbjdeOONIf+rztdmK+9Pf/rTgfF4SPKKFSuKzTffPKSgYHRtE0EGz7BICaBPBR9S587iWGZws9B6vmfrNMAU42j3JC7bBAkuiJ6moqsqF9ncww8/HKKwWKAt0pm8bRMmtoixIEoVzEScX/nKVxb77rtvI6uVAa6RzZIL1UQN8KsZ0FY7yAF7+umnR3q0oOeI8s9x1NftWNLE+sYyCbCor2gp8xtrw0RtGLrhhhsWhx9+ePHyl788nt6o9wxwjWqOXJg2aMDAZrK+6EUvCg+k4Z8aJgBiWblKwnrXNgozVZ4fZorFSR3ZeuutQ0K09bt1W77Puq7ZBzfrFsj3b50GYnR1iy22CNsr2Szz/PPPD4yuzi+H9aQCE22pPFBfb731QtrM/vvvH4DObr+CL3X7xTWhbhngmtAKuQyt0wCQw2LiTsB2v73lllvC8xtSC9CljKy//vqtq2cssPrGZ1jEY214zwDXhlbKZWysBrAXzGbdddcNL0DmUYPy4ewfJ7XE99tvv32xySabNLYeXS3Ys0ra3Otq5XK9sgamrYGYIrJq1ariscceC1FTu43svPPOwSGPCWWZngYywE1P1/lOWQNZA1PWQPuyDqesoHy7rIGsgfZqIANce9sulzxrIGtgiAYywA1RUP46ayBroL0ayADX3rbLJc8ayBoYooEMcEMUlL/OGsgaaK8GMsC1t+1yybMGsgaGaCAD3BAF5a+zBrIG2quBDHDtbbtc8qyBrIEhGsgAN0RB+eusgayB9mogA1x72y6XPGsga2CIBjLADVFQ/jprIGugvRrIANfetsslzxrIGhiigQxwQxSUv84ayBporwYywLW37XLJswayBoZoIAPcEAXlr7MGsgbaq4H/Az1Aer43RVnkAAAAAElFTkSuQmCC;" vertex="1" parent="1">
                    <mxGeometry x="100" y="240" width="117.54" height="110" as="geometry"/>
                </mxCell>
            </root>
        </mxGraphModel>
    </diagram>
</mxfile>